PathFileType	4	(X/Y/Z)	Patient4_TMGait_0pt2_02_right_12.trc.trc
DataRate	CameraRate	NumFrames	NumMarkers	Units	OrigDataRate	OrigDataStartFrame	OrigNumFrames
49.469964664311	49.469964664311	4	33	mm	49.469964664311	124	       141
Frame#	Time	R.Midfoot.Superior			Sacral			L.Shoulder			Chest			R.Shoulder			Neck			R.ASIS			L.ASIS			R.Thigh.Superior			R.Thigh.Lateral			R.Thigh.Inferior			R.Patella			L.Thigh.Superior			L.Thigh.Lateral			L.Thigh.Inferior			L.Patella			L.Shank.Superior			L.Shank.Lateral			L.Shank.Inferior			R.Shank.Superior			R.Shank.Lateral			R.Shank.Inferior			R.Heel			R.Midfoot.Lateral			R.Toe			L.Heel			L.Midfoot.Lateral			L.Midfoot.Superior			L.Toe			L.Elbow			L.Wrist			R.Elbow			R.Wrist			
		X1	Y1	Z1	X2	Y2	Z2	X3	Y3	Z3	X4	Y4	Z4	X5	Y5	Z5	X6	Y6	Z6	X7	Y7	Z7	X8	Y8	Z8	X9	Y9	Z9	X10	Y10	Z10	X11	Y11	Z11	X12	Y12	Z12	X13	Y13	Z13	X14	Y14	Z14	X15	Y15	Z15	X16	Y16	Z16	X17	Y17	Z17	X18	Y18	Z18	X19	Y19	Z19	X20	Y20	Z20	X21	Y21	Z21	X22	Y22	Z22	X23	Y23	Z23	X24	Y24	Z24	X25	Y25	Z25	X26	Y26	Z26	X27	Y27	Z27	X28	Y28	Z28	X29	Y29	Z29	X30	Y30	Z30	X31	Y31	Z31	X32	Y32	Z32	X33	Y33	Z33	

124	29.176357142857	1013.341614937001	104.619775900230	581.751680542170	616.002844278082	992.857588721526	353.783516739507	852.088635739510	1431.370993619474	232.220980693511	905.806163615316	1348.997301279882	408.348492839835	787.862227298355	1425.230875118780	557.214219772019	796.002308008858	1480.910181687090	385.798391338730	824.609984184824	929.370930773817	509.488756837376	854.653527140060	951.850206935659	237.085950734934	909.978199435021	764.990084833399	485.546045335239	867.850174907682	645.315570404836	563.158636637365	959.128451629399	607.920370610881	487.442795449783	992.172446085604	520.679469891426	511.545479401480	888.943954551949	732.539666712412	285.405155634539	809.759688484197	610.280229918509	219.698345073215	875.403986269467	536.303834409048	305.057772748426	871.439692461881	462.460886389705	315.953889085984	826.943192408305	391.854445539531	302.787734799877	723.833175195715	295.550847639771	240.183898521576	737.185392024560	179.949592786808	317.658563432665	967.939696842863	429.758727541873	528.864755959966	902.884343946661	328.930710333494	604.460963935606	959.169966660214	229.966164974571	559.017020216456	837.776351482639	60.754495820113	545.874495672710	922.680645713422	44.574478867871	617.328785942423	1130.082976457391	46.729041410297	603.687561716011	581.121592466813	39.526927505385	343.114325177374	660.901484558374	35.520046859244	268.966138443227	743.800256760027	94.453008269421	303.572171736869	872.668530782515	39.590992393907	282.742490390022	1021.975937542046	1192.649949079128	48.523650294121	1275.938937949306	1126.929526630160	62.456073438258	577.291219132676	1144.766459805069	616.667566858967	499.543759308750	893.957161115583	605.155511301831	
125	29.196571428571	1013.577058856184	103.402544665309	581.368888153971	618.549463717379	993.784988904578	355.775733166441	856.804087281402	1431.482750798069	236.143036799785	907.445280204468	1350.206001773467	413.518398583785	787.862640036599	1428.474854329180	559.859209540731	797.944768596733	1481.751667757339	388.337054940378	824.930591090550	929.511010678269	514.197292270552	858.509177309903	952.630053812499	242.308552027940	909.911476283390	764.089312085678	490.719743438710	865.439967768237	643.554445183491	566.116931100981	957.723829022570	606.410981079946	491.701900099054	989.045478718664	519.434275541890	514.438411509122	889.395763619462	731.716691932602	288.974874407606	808.415210571417	611.103689157080	221.744947510451	872.226786887623	535.679755765628	306.828130953279	867.167801327524	462.178568870066	317.297041787254	822.727508173589	392.046973949404	303.713053102431	719.767472066370	295.902592138699	240.565632320327	733.032819329401	180.106686095721	317.837597325104	966.030722989686	428.419997678872	530.842946009987	902.173587476595	326.627579777455	605.843767466118	958.892533827659	228.647120445695	559.321206579169	838.693278330688	60.000796320482	544.656683081332	922.869065174627	44.172154185793	616.770583780082	1129.859730973196	45.408783117622	604.461107384192	577.037353169091	39.534421175870	343.009015873950	656.835916492563	35.459839663992	268.909558975975	739.731171795684	94.481034973330	303.490389768474	868.596333649582	39.600148302397	282.759642541700	1031.751489070452	1199.103343259455	52.846544852864	1288.301819094444	1145.719661482847	68.559633137616	571.730118471703	1153.313125200350	616.343162754693	490.468742225957	903.898275287567	603.093141771642	
126	29.216785714286	1010.904105435656	102.371399081838	580.510828330755	621.132347750312	994.475420995630	358.149567557177	861.440945724633	1431.297340861649	240.221787520037	909.223215948985	1351.088343604053	418.736117758516	788.190763224184	1431.261232006327	562.716531034422	800.020968489028	1482.336924318159	391.078747787521	825.379829904948	929.441609747167	519.041474363361	862.310653596060	953.145321108263	247.700662270037	910.167630004307	762.848286483341	495.625679179685	863.469264724858	641.504115854442	568.675084109546	956.535040139233	604.562001365775	495.272229802454	986.142262426626	517.615893076249	516.574277457845	889.971549275272	730.773265720664	292.633206418915	807.197044011892	611.812365236885	223.932276053684	869.275290328129	534.978254174317	308.672574289104	863.167909676941	461.784912040052	318.695404725008	818.742146573688	392.140233241062	304.695313922177	715.803175664048	296.260532852078	241.017667034254	728.962691964588	180.230569889666	318.052411620513	963.757082258349	426.528801346582	532.204252276571	900.396333422752	324.327463958657	606.609604843478	956.715202710957	226.951788939502	559.010309374020	836.643907286391	59.106244255901	543.173214649348	920.149801373302	43.998550244777	615.986222679383	1126.831058044830	44.408157122278	604.991678529770	572.962007268479	39.538935584111	342.917995981746	652.781977345708	35.400377121141	268.861362823208	735.679010016275	94.511525065873	303.416599030363	864.536065759533	39.608460609258	282.775901313420	1040.774546733176	1204.592249588783	57.653951401782	1299.257160296651	1162.993294627230	75.096461485837	568.177758572765	1160.098938539394	616.610339124878	484.365922376741	911.697880267620	601.987506230602	
127	29.237000000000	1006.176300775884	101.461917780276	579.364946375785	623.737284007187	994.961008913398	360.875460341013	865.990897804332	1430.878389754595	244.486426187571	911.167676856586	1351.643896850278	424.008385837683	788.848932208096	1433.519323780795	565.834689213726	802.242423428575	1482.681068446815	394.079509264127	825.965820973384	929.193666205657	523.960484723199	866.024062891086	953.406066128084	253.183955990802	910.663844851876	761.273913184996	500.242349154816	861.858314704487	639.274185687155	570.969627486824	955.447674066417	602.420131667179	498.277249166728	983.438316322324	515.373949337096	518.167424848435	890.636343577967	729.722886773271	296.347830391295	806.094361562899	612.400412170664	226.238115366947	866.549656763821	534.205718561124	310.576741652889	859.447065124871	461.284037944887	320.135790147780	814.992099934951	392.136334487274	305.728022646995	711.941664176243	296.630673010179	241.542236356028	724.975731004975	180.328584449038	318.303415151918	961.233233515597	424.207906936086	533.155102530254	897.839951064557	321.953874514820	606.981541634548	953.187903956091	224.873733720856	558.316399571279	832.493186274305	57.772669635378	541.676204851939	915.471383911210	43.756311463601	615.140220601453	1121.984403939037	43.800361083717	605.276720977103	568.893349734099	39.554009017548	342.839471811572	648.736196756107	35.352350816656	268.822174870164	731.644590780915	94.547933696184	303.351780392087	860.483219534132	39.611386163088	282.790211159007	1049.096796523864	1209.171851166117	62.866055093491	1308.941761950868	1178.682316662881	81.990678384154	566.386792874275	1165.095529266382	617.545589373924	480.760931818602	917.367235509398	601.931750081681	
